<svg xmlns="http://www.w3.org/2000/svg" height="48" viewBox="0 -960 960 960" width="48"><path d="M487-345q65 0 111.5-42T645-489q0-52-33.5-89T530-615q-43 0-72.5 27.5T428-521q0 17 6.5 33t19.5 30l44-42q-5-4-7.5-9t-2.5-11q0-14 11-24t31-10q22 0 39 18.5t17 47.5q0 35-28 59.5T488-404q-51 0-86.5-40.5T366-545q0-31 11.5-59t33.5-50l-43-43q-31 29-47 68.5T305-546q0 84 52.5 142.5T487-345ZM234-74v-175q-58-53-89-123.027-31-70.028-31-147.612 0-153.778 106.292-260.569Q326.583-887 479.818-887 607-887 705.412-811.726 803.824-736.453 834-617l54 218q5 18-5.909 31.5Q871.182-354 853-354h-86v127q0 31-21.5 52T694-154h-87v80H234Z"/></svg>